<?xml version="1.0" standalone="no"?>
<!DOCTYPE svg PUBLIC "-//W3C//DTD SVG 20010904//EN"
 "http://www.w3.org/TR/2001/REC-SVG-20010904/DTD/svg10.dtd">
<svg version="1.0" xmlns="http://www.w3.org/2000/svg"
 width="900.000000pt" height="900.000000pt" viewBox="0 0 900.000000 900.000000"
 preserveAspectRatio="xMidYMid meet">

<g transform="translate(0.000000,900.000000) scale(0.100000,-0.100000)"
fill="#000000" stroke="none">
<path d="M5211 8514 c-132 -35 -239 -125 -298 -250 -33 -69 -38 -89 -41 -169
-5 -123 23 -235 94 -381 30 -62 64 -147 75 -189 19 -74 19 -81 4 -159 -37
-182 -76 -321 -95 -336 -23 -17 -114 -323 -106 -354 3 -10 -13 -55 -36 -100
-37 -72 -42 -91 -46 -166 -2 -50 -12 -108 -24 -140 -11 -30 -39 -122 -63 -204
l-44 -149 -64 -62 c-35 -34 -69 -76 -76 -94 -15 -34 -31 -41 -31 -13 0 9 -9
28 -20 42 -11 14 -20 39 -20 57 0 41 -20 59 -70 68 -22 4 -46 15 -53 24 -6 10
-23 24 -37 31 -14 7 -45 32 -70 56 -152 146 -392 107 -536 -88 -57 -78 -79
-144 -79 -243 0 -103 24 -153 117 -246 l69 -69 -18 -53 c-24 -68 -105 -151
-166 -168 -58 -15 -88 -32 -126 -71 -37 -37 -164 -246 -217 -356 -20 -40 -49
-87 -65 -105 -46 -50 -85 -116 -110 -187 -13 -37 -38 -82 -59 -105 -142 -159
-293 -398 -394 -625 -43 -96 -55 -114 -146 -208 -55 -57 -100 -107 -100 -112
0 -4 -44 -31 -98 -58 -96 -50 -164 -68 -322 -88 -67 -8 -73 -11 -61 -33 20
-37 199 -52 306 -26 74 18 78 18 73 3 -2 -6 -35 -28 -74 -47 -50 -26 -69 -41
-69 -56 0 -35 73 -31 192 9 57 19 105 31 107 27 3 -4 -4 -20 -15 -37 -22 -34
-25 -72 -5 -80 28 -11 79 23 129 86 63 77 86 85 131 42 41 -39 61 -49 119 -57
53 -8 97 12 97 44 0 24 -17 37 -57 46 -57 12 -69 38 -67 151 2 85 6 110 34
179 48 122 127 234 197 280 204 134 291 227 385 410 60 117 64 123 112 146 36
17 57 35 71 61 18 33 24 38 57 38 32 0 40 -5 54 -32 9 -18 39 -66 67 -105 36
-54 50 -83 51 -113 2 -28 12 -51 35 -80 24 -31 38 -65 57 -141 13 -55 28 -108
33 -117 7 -13 -2 -32 -36 -77 -38 -50 -54 -63 -97 -77 -93 -31 -116 -84 -116
-268 0 -89 -4 -131 -15 -154 -20 -43 -100 -102 -149 -111 -38 -6 -51 -17 -127
-101 -14 -16 -59 -55 -100 -86 -164 -125 -363 -335 -453 -479 -26 -41 -35 -47
-74 -53 -68 -9 -127 -40 -190 -99 -32 -30 -81 -64 -112 -77 -251 -105 -547
-287 -775 -479 -82 -69 -405 -388 -405 -401 0 -3 4 -12 10 -20 6 -11 1 -21
-23 -41 -32 -26 -32 -26 -56 -8 -44 35 -68 22 -113 -60 -20 -35 -52 -41 -68
-12 -5 11 -15 42 -21 70 -6 28 -19 61 -28 73 l-18 22 -18 -28 c-18 -27 -18
-31 -2 -76 9 -26 17 -60 17 -74 0 -15 5 -36 11 -47 15 -30 4 -53 -19 -40 -30
16 -82 -25 -82 -64 0 -27 -6 -34 -55 -58 -31 -15 -64 -27 -73 -27 -10 0 -52
-12 -93 -26 -67 -23 -115 -33 -249 -50 -53 -7 -144 -64 -172 -109 -13 -20 -17
-41 -14 -63 6 -39 91 -157 148 -207 83 -71 198 -85 290 -36 86 46 128 54 211
40 123 -21 158 -5 255 118 12 15 33 41 46 58 13 16 39 34 57 40 33 11 67 49
114 127 11 18 32 39 47 45 14 7 33 24 42 38 21 31 89 75 117 75 11 0 47 18 79
41 56 39 60 40 94 29 42 -13 30 -19 160 84 137 108 355 269 380 280 12 5 89
46 171 90 169 90 357 209 522 332 68 51 138 93 180 109 112 44 538 256 678
337 200 116 472 250 510 251 19 1 60 -14 101 -35 73 -38 170 -73 297 -107 42
-12 146 -50 230 -85 83 -35 163 -67 177 -71 14 -4 61 -24 105 -45 161 -75 263
-110 410 -140 285 -57 290 -59 415 -125 130 -68 206 -121 458 -314 221 -171
249 -189 308 -206 36 -11 98 -51 221 -144 171 -128 224 -158 266 -147 27 6 88
-40 172 -132 32 -34 70 -70 86 -79 15 -9 34 -30 40 -46 7 -17 43 -62 81 -101
45 -47 73 -86 84 -116 20 -59 84 -170 106 -184 24 -15 71 12 167 94 100 86
201 158 283 203 36 21 102 63 145 95 90 67 349 308 372 347 16 25 15 27 -21
60 -25 24 -50 36 -83 40 -41 7 -54 3 -118 -30 -40 -21 -97 -50 -127 -66 -61
-32 -117 -36 -367 -30 l-122 3 31 47 c69 100 92 124 156 152 74 33 79 56 12
51 -54 -3 -96 -23 -145 -67 -21 -20 -48 -35 -61 -35 -13 0 -24 -4 -24 -10 0
-14 -54 -40 -83 -40 -13 0 -42 13 -64 29 -26 19 -48 28 -61 24 -13 -3 -34 4
-52 17 -32 23 -33 28 -15 87 6 18 -4 28 -63 70 -38 26 -130 100 -203 164 -265
229 -592 477 -889 674 -223 148 -265 171 -329 180 -37 5 -54 13 -66 31 -28 43
-267 245 -370 313 -55 37 -185 109 -290 160 -104 51 -191 95 -193 96 -2 2 4
17 12 34 20 37 20 93 2 129 -21 40 -83 95 -147 131 -54 30 -58 35 -89 111
l-32 80 16 64 c47 190 65 455 47 701 -16 203 -22 226 -92 361 -79 148 -112
277 -113 429 -1 109 0 111 47 228 57 141 77 230 77 340 1 55 7 100 20 137 11
30 19 73 20 95 0 46 16 106 54 212 15 40 37 126 51 191 20 100 28 124 54 150
44 48 78 229 67 361 -7 85 18 376 40 462 18 73 18 123 -1 160 -9 16 -13 33
-11 38 3 5 36 12 72 16 255 27 434 220 434 468 0 293 -295 517 -579 441z"/>
</g>
</svg>
