<?xml version="1.0" standalone="no"?>
<!DOCTYPE svg PUBLIC "-//W3C//DTD SVG 20010904//EN"
 "http://www.w3.org/TR/2001/REC-SVG-20010904/DTD/svg10.dtd">
<svg version="1.0" xmlns="http://www.w3.org/2000/svg"
 width="820.000000pt" height="512.000000pt" viewBox="0 0 820.000000 512.000000"
 preserveAspectRatio="xMidYMid meet">

<g transform="translate(0.000000,512.000000) scale(0.100000,-0.100000)"
fill="#000000" stroke="none">
<path d="M2875 4750 c-174 -16 -308 -52 -472 -130 -151 -72 -272 -159 -403
-290 -270 -270 -424 -610 -455 -1000 -9 -121 19 -403 56 -570 173 -768 717
-1440 1594 -1970 229 -138 641 -340 833 -406 52 -19 52 -19 120 5 125 45 326
134 507 226 1138 577 1828 1379 1969 2285 22 141 38 353 31 423 -23 250 -64
404 -159 596 -73 151 -169 284 -296 411 -254 255 -542 392 -888 420 -424 34
-843 -152 -1152 -511 l-57 -66 -103 109 c-158 169 -292 267 -477 352 -209 96
-427 135 -648 116z m270 -331 c230 -40 447 -163 612 -347 177 -196 209 -217
343 -217 134 0 166 21 343 217 524 584 1405 436 1769 -297 122 -244 150 -505
92 -843 -122 -714 -626 -1344 -1489 -1864 -211 -127 -685 -358 -735 -358 -18
0 -195 77 -335 146 -877 428 -1501 1034 -1749 1697 -111 296 -157 675 -112
910 33 173 118 369 218 504 254 344 656 518 1043 452z"/>
</g>
</svg>
