<?xml version="1.0" standalone="no"?>
<!DOCTYPE svg PUBLIC "-//W3C//DTD SVG 20010904//EN"
 "http://www.w3.org/TR/2001/REC-SVG-20010904/DTD/svg10.dtd">
<svg version="1.0" xmlns="http://www.w3.org/2000/svg"
 width="1734.000000pt" height="1734.000000pt" viewBox="0 0 1734.000000 1734.000000"
 preserveAspectRatio="xMidYMid meet">
<metadata>
Created by potrace 1.14, written by Peter Selinger 2001-2017
</metadata>
<g transform="translate(0.000000,1734.000000) scale(0.100000,-0.100000)"
fill="#000000" stroke="none">
<path d="M13987 13183 c-56 -19 -111 -70 -133 -122 -20 -47 -25 -143 -9 -175
7 -13 11 -27 8 -29 -2 -3 18 -27 45 -55 98 -96 253 -101 353 -10 27 24 55 68
51 81 -1 4 2 7 6 7 16 0 20 98 6 148 -37 132 -188 203 -327 155z m171 -70 c65
-42 92 -90 89 -154 -3 -52 -33 -119 -53 -119 -8 0 -14 -4 -14 -9 0 -15 -71
-38 -110 -36 -119 7 -188 114 -150 230 22 65 81 104 163 105 29 0 58 -7 75
-17z"/>
<path d="M13979 13083 c-6 -52 -2 -236 6 -241 6 -4 20 -7 33 -8 23 -1 26 7 24
74 -2 46 11 40 42 -21 25 -48 32 -53 60 -52 36 1 36 12 0 67 -29 45 -29 48 -4
48 48 0 52 107 4 128 -27 13 -163 16 -165 5z m115 -39 c9 -3 16 -17 16 -30 0
-21 -5 -24 -35 -24 -36 0 -42 10 -29 44 6 17 22 20 48 10z"/>
<path d="M4106 13160 c-6 -14 -15 -28 -21 -32 -5 -4 -7 -8 -3 -8 4 0 -1 -20
-12 -45 -11 -25 -17 -45 -13 -45 3 0 1 -6 -4 -12 -6 -7 -20 -40 -31 -73 -20
-60 -32 -90 -58 -152 -8 -17 -14 -34 -14 -38 0 -5 -16 -49 -36 -99 -20 -50
-38 -98 -39 -106 -2 -8 -4 -16 -5 -17 -2 -2 -3 -6 -4 -10 -1 -5 -10 -26 -19
-47 -10 -22 -20 -51 -24 -65 -3 -14 -9 -30 -13 -36 -4 -5 -24 -57 -45 -115
-20 -58 -43 -118 -50 -135 -7 -16 -27 -70 -45 -120 -18 -49 -39 -104 -46 -122
-8 -17 -14 -33 -14 -36 0 -3 -5 -18 -12 -34 -6 -15 -12 -31 -13 -35 -2 -5 -4
-10 -5 -13 -1 -3 -3 -8 -5 -12 -1 -5 -5 -15 -8 -23 -8 -19 -51 -133 -52 -140
-1 -3 -5 -14 -10 -25 -22 -56 -74 -196 -90 -240 -21 -58 -82 -221 -95 -250 -4
-11 -27 -72 -50 -135 -23 -63 -46 -119 -50 -124 -5 -5 -6 -15 -3 -22 3 -8 0
-14 -6 -14 -6 0 -10 -3 -9 -7 1 -5 -4 -24 -11 -43 -8 -19 -14 -38 -15 -42 -1
-3 -4 -10 -8 -14 -5 -4 -8 -17 -8 -29 0 -11 -4 -25 -8 -31 -5 -5 -16 -29 -25
-54 -9 -25 -22 -58 -28 -75 -7 -16 -13 -35 -15 -42 -1 -6 -14 -42 -29 -79 -15
-38 -28 -73 -29 -79 -2 -5 -10 -27 -19 -49 -9 -21 -17 -40 -17 -42 0 -1 -5
-15 -12 -31 -13 -32 -19 -52 -20 -70 -1 -7 -5 -13 -9 -13 -3 0 -9 -10 -12 -22
-3 -13 -22 -66 -42 -118 -20 -52 -38 -99 -39 -105 -4 -15 -16 -47 -29 -75 -6
-14 -11 -28 -13 -32 -1 -5 -2 -9 -4 -10 -1 -2 -3 -10 -5 -18 -7 -28 -116 -315
-129 -340 -8 -14 -15 -29 -15 -35 -2 -16 -33 -109 -41 -120 -3 -5 -17 -39 -29
-75 -12 -36 -25 -72 -28 -80 -3 -8 -7 -19 -9 -25 -7 -22 -106 -282 -118 -310
-11 -25 -36 -95 -41 -115 -1 -3 -6 -16 -12 -30 -29 -68 -32 -78 -20 -82 11 -4
1083 -3 1097 1 4 0 12 18 19 39 15 44 107 292 126 342 25 65 28 75 27 83 -1 4
3 7 10 7 6 0 9 2 6 5 -5 5 36 123 72 210 7 17 14 36 16 42 2 14 49 140 69 188
7 17 20 53 30 80 9 28 23 64 31 82 8 17 14 33 14 36 0 3 5 18 12 34 6 15 12
31 12 35 1 3 4 10 9 14 4 4 7 14 7 22 0 8 6 28 14 45 7 18 19 48 26 67 7 19
19 50 27 69 8 18 17 41 18 50 2 9 4 17 5 19 2 1 3 5 5 10 1 4 8 21 15 37 7 17
12 34 11 39 -1 4 2 13 7 20 5 6 16 31 25 56 9 25 22 59 28 75 7 17 13 35 15
42 1 6 14 42 29 79 15 38 28 73 30 79 1 5 7 22 12 36 6 14 17 44 24 67 7 23
16 42 20 42 5 0 7 -6 4 -12 -2 -7 -7 -69 -10 -138 -7 -126 -9 -168 -19 -315
-3 -44 -8 -120 -11 -170 -3 -49 -7 -117 -10 -150 -7 -86 -17 -262 -19 -317 0
-27 -3 -48 -6 -48 -3 0 -5 -30 -6 -68 0 -37 -4 -112 -8 -167 -26 -381 -38
-580 -40 -630 l-1 -40 597 0 597 -1 41 111 c23 60 51 135 62 165 12 30 27 69
34 87 8 17 14 33 14 36 0 3 5 18 12 34 6 15 12 33 13 39 2 6 10 27 18 45 9 19
19 45 22 59 4 14 13 39 20 55 7 17 18 46 25 65 7 19 19 50 27 69 8 18 16 39
17 45 2 13 42 121 56 151 5 11 18 47 30 80 11 33 25 69 30 80 4 11 27 72 50
135 23 63 49 130 57 149 8 18 17 41 18 50 2 9 4 17 5 19 2 1 3 5 5 10 2 7 20
54 32 82 3 8 7 17 7 20 3 10 38 105 47 125 5 11 20 52 34 90 25 68 67 179 120
320 14 39 37 102 51 140 14 39 29 79 34 90 5 11 23 58 40 105 17 47 35 94 40
105 4 11 13 36 20 55 7 19 19 50 27 69 8 18 17 41 18 50 2 9 4 17 5 19 2 1 3
5 5 10 1 4 7 21 14 37 7 17 14 35 15 40 3 9 18 48 33 85 3 8 7 20 9 25 1 6 8
24 15 40 6 17 13 35 14 41 2 6 10 27 18 45 9 19 19 45 22 59 4 14 13 39 20 55
7 17 18 46 25 65 7 19 19 50 27 69 8 18 17 41 18 50 2 9 4 17 5 19 2 1 3 5 5
10 1 4 7 21 14 37 6 17 23 59 36 95 13 36 30 79 36 95 7 17 13 35 14 41 2 6
10 27 18 45 9 19 19 45 22 59 4 14 13 39 20 55 7 17 30 75 50 130 58 157 77
208 90 240 7 17 16 41 20 55 4 14 11 30 15 35 5 6 11 27 15 48 4 20 11 37 16
37 5 0 8 3 8 8 -1 4 0 9 1 12 1 3 3 12 5 21 1 9 10 32 18 50 13 30 87 226 87
232 0 1 -248 2 -551 2 -533 0 -551 -1 -565 -19 -8 -11 -14 -26 -14 -33 0 -8
-10 -35 -21 -61 -12 -25 -22 -51 -24 -57 -2 -9 -6 -21 -22 -62 -3 -10 -7 -20
-8 -23 -4 -13 -18 -47 -25 -65 -5 -11 -16 -42 -26 -70 -10 -27 -22 -56 -27
-62 -5 -7 -7 -13 -3 -13 3 0 -5 -25 -19 -55 -13 -31 -25 -59 -26 -63 -1 -4 -6
-18 -11 -32 -5 -14 -11 -32 -13 -40 -2 -8 -12 -36 -23 -62 -11 -25 -18 -49
-15 -52 4 -3 2 -6 -4 -6 -6 0 -14 -16 -17 -35 -4 -19 -11 -35 -17 -35 -6 0 -8
-4 -4 -9 3 -5 -2 -27 -11 -48 -20 -45 -21 -48 -69 -178 -20 -55 -44 -118 -54
-140 -9 -21 -17 -43 -17 -47 -1 -4 -3 -10 -4 -13 -1 -3 -3 -8 -5 -12 -1 -5 -5
-17 -10 -28 -31 -75 -43 -114 -38 -119 4 -3 1 -6 -5 -6 -7 0 -12 -8 -12 -18 0
-10 -3 -22 -7 -26 -4 -3 -8 -12 -9 -19 -2 -7 -37 -102 -79 -212 -80 -210 -115
-304 -118 -320 -1 -5 -6 -15 -12 -21 -12 -14 -27 4 -17 21 4 5 7 24 8 40 1 29
10 166 20 310 5 81 12 192 18 285 5 81 15 234 21 320 8 111 17 252 20 320 2
36 4 65 5 65 1 0 3 27 5 60 2 51 9 171 20 330 2 22 3 40 4 40 1 0 4 54 7 119
3 66 5 122 6 125 0 3 0 11 -1 16 -1 7 -202 10 -587 10 l-587 0 -11 -25z"/>
<path d="M7210 13180 c-8 -5 -22 -40 -104 -265 -14 -38 -30 -79 -35 -90 -6
-11 -13 -31 -17 -44 -3 -13 -13 -40 -22 -60 -9 -20 -17 -43 -18 -52 -2 -9 -13
-38 -25 -65 -11 -27 -38 -96 -59 -154 -21 -58 -53 -142 -70 -187 -17 -46 -43
-118 -59 -160 -16 -43 -42 -112 -59 -153 -16 -41 -35 -93 -42 -115 -7 -22 -18
-53 -26 -70 -7 -16 -30 -75 -50 -130 -20 -55 -50 -136 -66 -180 -17 -44 -43
-116 -59 -160 -16 -44 -36 -93 -43 -110 -8 -16 -19 -48 -26 -70 -7 -22 -17
-46 -23 -52 -5 -7 -6 -13 -1 -13 4 0 3 -5 -4 -12 -7 -7 -12 -18 -12 -25 0 -7
-9 -32 -19 -56 -11 -23 -28 -69 -39 -102 -12 -33 -48 -132 -82 -220 -66 -175
-69 -182 -71 -193 -1 -4 -17 -44 -35 -89 -18 -46 -29 -83 -26 -83 4 0 3 -4 -3
-8 -5 -4 -21 -38 -34 -77 -13 -38 -28 -75 -33 -82 -5 -7 -7 -17 -3 -23 3 -5 2
-10 -2 -10 -5 0 -17 -25 -26 -56 -10 -31 -26 -75 -37 -99 -11 -24 -20 -46 -20
-49 0 -2 -5 -17 -12 -33 -6 -15 -12 -33 -13 -38 -2 -10 -47 -128 -65 -170 -4
-11 -20 -54 -35 -95 -15 -41 -41 -111 -58 -155 -16 -44 -36 -98 -44 -120 -7
-22 -18 -49 -22 -60 -25 -56 -61 -157 -61 -170 0 -8 -4 -15 -10 -15 -5 0 -9
-3 -9 -7 1 -5 0 -11 -1 -15 -1 -5 -3 -11 -5 -15 -1 -5 -7 -21 -13 -36 -7 -16
-12 -32 -12 -36 0 -4 -7 -22 -16 -40 -9 -17 -17 -37 -18 -44 -2 -7 -6 -19 -9
-27 -3 -8 -22 -60 -42 -115 -20 -55 -40 -109 -44 -120 -5 -11 -13 -31 -19 -45
l-10 -26 556 1 556 0 14 35 c9 19 17 42 18 50 2 9 15 42 29 73 14 32 25 61 25
66 0 5 8 26 17 47 9 22 17 41 18 44 5 24 30 88 39 99 6 8 9 16 7 18 -1 2 2 16
7 31 6 15 22 56 35 92 13 36 38 101 55 145 17 44 49 132 73 195 23 63 47 126
52 140 6 14 11 27 12 30 1 3 4 12 8 20 3 8 13 38 23 65 9 28 21 54 26 60 4 5
8 15 8 22 0 7 15 52 34 101 19 48 51 132 71 187 19 55 40 109 45 120 4 11 21
54 36 95 15 41 31 81 37 88 5 6 6 12 2 12 -4 0 -2 7 5 15 7 8 10 15 7 15 -4 0
9 36 28 80 19 44 35 82 35 85 0 3 3 10 5 17 2 7 10 31 18 53 25 73 178 480
192 510 7 16 11 33 9 37 -3 4 0 8 5 8 6 0 10 3 9 8 0 4 1 14 5 22 36 95 71
197 69 203 -1 4 3 7 10 7 6 0 8 3 5 6 -3 4 -1 16 5 28 7 11 13 26 14 31 4 18
46 130 52 140 4 6 8 17 9 26 1 8 9 29 18 45 8 16 15 36 15 44 0 9 7 25 15 37
9 12 14 26 13 30 -1 4 5 24 14 43 8 19 21 53 28 75 7 22 17 45 22 51 5 7 8 16
7 20 -1 5 5 26 14 46 10 21 17 43 17 51 0 7 4 17 8 22 5 6 14 24 20 40 11 33
95 258 108 290 4 11 8 22 9 25 1 3 4 12 8 20 3 8 22 60 42 115 20 55 40 109
45 120 6 11 25 63 44 115 19 52 40 109 47 125 6 17 13 37 15 45 2 8 7 23 13
35 5 11 19 47 31 80 12 33 26 68 31 78 5 9 6 18 2 18 -26 5 -1096 3 -1103 -1z"/>
<path d="M8501 13175 c-7 -9 -22 -41 -26 -57 -2 -5 -3 -9 -5 -10 -1 -2 -3 -10
-5 -18 -4 -17 -50 -144 -65 -175 -9 -21 -44 -116 -46 -125 0 -3 -6 -18 -13
-35 -6 -16 -23 -61 -37 -100 -14 -38 -32 -86 -39 -105 -8 -19 -20 -53 -27 -75
-7 -22 -15 -42 -18 -45 -3 -3 -18 -43 -34 -90 -16 -47 -36 -101 -44 -120 -9
-19 -17 -38 -18 -42 -1 -5 -3 -10 -4 -13 -1 -3 -3 -8 -4 -12 -1 -7 -26 -73
-63 -173 -3 -8 -7 -19 -9 -25 -1 -5 -17 -46 -33 -90 -17 -44 -31 -86 -31 -92
0 -7 -5 -13 -12 -13 -6 0 -9 -3 -5 -6 3 -4 0 -19 -9 -35 -8 -16 -14 -30 -13
-31 0 -2 -4 -16 -10 -31 -6 -16 -11 -31 -11 -33 0 -3 -11 -33 -24 -67 -13 -34
-47 -125 -76 -202 -28 -77 -55 -149 -60 -160 -5 -11 -18 -47 -30 -80 -11 -33
-25 -69 -29 -80 -5 -11 -17 -42 -26 -70 -10 -27 -21 -59 -25 -70 -4 -11 -15
-40 -25 -65 -10 -25 -21 -54 -26 -65 -4 -11 -19 -51 -33 -90 -14 -38 -37 -101
-51 -140 -15 -38 -31 -83 -37 -100 -5 -16 -16 -44 -24 -62 -8 -17 -14 -35 -14
-40 0 -4 -11 -35 -24 -68 -32 -78 -88 -227 -90 -240 -1 -5 -8 -20 -14 -32 -7
-13 -11 -23 -8 -23 2 0 -9 -30 -24 -67 -16 -37 -26 -71 -24 -75 3 -4 0 -8 -5
-8 -6 0 -11 -10 -11 -23 0 -13 -3 -27 -7 -31 -5 -4 -8 -11 -9 -14 0 -4 -5 -18
-11 -32 -28 -66 -113 -300 -113 -309 0 -6 -5 -11 -11 -11 -5 0 -8 -4 -5 -9 3
-5 -7 -42 -24 -82 -33 -84 -110 -289 -114 -304 -2 -5 -8 -23 -15 -40 -6 -16
-16 -43 -22 -60 -6 -16 -18 -44 -25 -62 -8 -17 -14 -36 -14 -42 0 -6 -4 -19
-9 -29 -10 -17 -63 -158 -67 -177 -2 -5 -12 -33 -23 -60 l-19 -51 556 1 556 0
26 70 c14 39 30 79 35 90 4 11 9 22 10 25 0 3 10 30 22 60 83 213 217 571 225
600 6 19 17 44 24 55 8 11 14 25 14 31 0 6 8 29 17 50 9 22 18 44 19 49 3 13
52 143 63 170 5 11 28 70 50 130 23 61 58 153 79 205 20 52 36 98 34 103 -1 4
2 7 8 7 6 0 9 3 8 8 -3 8 105 302 109 298 2 -1 5 -87 8 -191 3 -103 8 -192 11
-196 3 -5 0 -9 -6 -9 -6 0 -8 -5 -4 -11 6 -11 14 -252 17 -541 1 -80 6 -138
11 -138 6 0 5 -5 -2 -12 -7 -7 -8 -17 -2 -29 7 -12 6 -20 0 -24 -6 -4 -7 -11
-4 -17 4 -5 8 -87 10 -181 6 -343 14 -589 18 -596 3 -4 358 -6 789 -6 432 0
783 -3 780 -8 -3 -5 -11 -6 -18 -3 -7 2 -16 2 -20 -2 -4 -4 -10 -7 -13 -8 -4
0 -27 -6 -52 -13 -25 -7 -52 -15 -60 -17 -34 -8 -281 -75 -364 -98 -49 -14
-93 -23 -97 -20 -5 3 -9 1 -9 -3 0 -5 -28 -15 -62 -22 -35 -7 -67 -16 -73 -19
-5 -4 -14 -7 -20 -8 -5 -1 -39 -9 -75 -19 -36 -9 -76 -19 -89 -21 -14 -3 -28
-7 -33 -10 -4 -3 -16 -7 -25 -9 -10 -2 -119 -32 -243 -65 -124 -34 -232 -63
-240 -65 -8 -2 -15 -4 -15 -5 0 -2 -19 -7 -55 -14 -14 -3 -47 -12 -74 -20 -27
-8 -53 -13 -58 -10 -4 3 -8 0 -8 -5 0 -6 -3 -10 -7 -9 -9 1 -21 -2 -177 -44
-59 -16 -115 -31 -125 -33 -9 -3 -59 -16 -111 -31 -52 -14 -102 -27 -110 -28
-9 -1 -20 -5 -26 -8 -6 -4 -22 -9 -36 -12 -14 -2 -61 -14 -104 -26 -43 -13
-86 -24 -94 -25 -8 -2 -16 -4 -17 -5 -3 -3 -4 -3 -48 -15 -16 -4 -95 -25 -175
-47 -80 -21 -152 -41 -160 -43 -91 -23 -258 -67 -270 -72 -8 -3 -19 -7 -25 -8
-5 -2 -39 -11 -75 -20 -36 -9 -72 -19 -80 -20 -8 -2 -15 -4 -15 -5 0 -1 -7 -3
-15 -5 -58 -14 -328 -87 -340 -92 -8 -3 -22 -7 -30 -9 -8 -1 -40 -9 -70 -18
-30 -9 -68 -18 -84 -21 -16 -3 -34 -9 -40 -12 -6 -4 -17 -8 -26 -9 -8 -1 -24
-5 -35 -8 -11 -3 -81 -21 -155 -42 -74 -20 -142 -37 -151 -39 -9 -2 -47 -13
-85 -24 -79 -23 -249 -70 -279 -76 -11 -3 -51 -14 -90 -26 -38 -12 -78 -21
-87 -21 -10 1 -20 -4 -23 -9 -4 -5 -11 -7 -16 -4 -5 4 -15 3 -21 -2 -7 -4 -17
-8 -23 -9 -5 -1 -30 -8 -55 -15 -25 -7 -48 -13 -52 -15 -5 -1 -9 -2 -10 -4 -3
-2 -27 -7 -63 -15 -23 -4 -76 -19 -123 -34 -18 -5 -35 -10 -37 -10 -3 -1 -6
-1 -7 -2 -2 0 -10 -2 -18 -4 -28 -7 -235 -63 -310 -85 -41 -11 -88 -23 -105
-26 -16 -3 -50 -13 -75 -21 -25 -9 -58 -18 -73 -20 -16 -2 -46 -11 -68 -18
-21 -8 -39 -12 -39 -8 0 3 -7 0 -15 -7 -8 -7 -15 -10 -15 -7 0 3 -28 -1 -62
-9 -35 -8 -78 -17 -98 -20 -19 -3 -48 -7 -65 -11 -16 -3 -41 -7 -55 -8 -14 -2
-54 -6 -90 -10 -51 -5 -191 -14 -265 -16 -5 0 -22 2 -38 4 -15 2 -30 0 -33 -5
-3 -4 -10 -5 -17 -1 -6 3 -35 8 -64 9 -108 5 -302 30 -338 44 -13 5 -25 6 -28
4 -3 -3 -14 -1 -24 4 -10 6 -31 12 -48 15 -16 3 -42 10 -57 16 -16 6 -28 8
-28 5 0 -4 -6 -2 -12 4 -7 6 -16 11 -21 11 -24 2 -67 16 -102 34 -22 11 -42
20 -45 20 -18 -1 -203 87 -208 99 -2 4 -8 8 -14 8 -14 0 -185 118 -232 160
-100 89 -256 262 -256 284 0 4 -8 15 -18 26 -19 21 -131 229 -137 257 -3 10
-18 56 -35 101 -16 46 -28 88 -24 93 3 5 1 9 -4 9 -5 0 -9 6 -9 13 0 6 -3 26
-7 42 -3 17 -9 45 -12 64 -3 18 -8 43 -10 55 -24 119 -24 596 0 635 3 4 7 29
10 57 6 58 22 149 26 149 1 0 3 9 5 20 5 39 43 195 61 253 2 7 4 16 5 20 1 4
10 31 20 60 10 28 15 52 11 52 -4 0 -2 4 3 8 6 4 17 27 24 51 7 25 18 56 24
70 6 14 11 28 11 31 3 15 63 163 92 228 13 29 24 54 24 57 0 4 59 134 92 200
l19 40 -48 -53 c-26 -28 -61 -68 -78 -88 -16 -20 -34 -42 -40 -48 -5 -6 -23
-29 -40 -51 -16 -22 -38 -49 -48 -60 -9 -11 -45 -54 -78 -95 -34 -41 -70 -85
-80 -98 -10 -12 -19 -24 -19 -27 0 -3 -8 -13 -17 -23 -27 -28 -50 -57 -70 -89
-10 -15 -23 -32 -29 -38 -6 -5 -31 -37 -55 -70 -51 -70 -60 -81 -76 -100 -7
-7 -13 -16 -13 -19 0 -5 -8 -15 -52 -68 -10 -11 -20 -28 -23 -38 -3 -10 -12
-21 -20 -24 -8 -3 -15 -12 -15 -20 0 -8 -4 -16 -8 -18 -4 -1 -30 -34 -57 -73
-27 -38 -53 -71 -57 -73 -5 -2 -8 -10 -8 -17 0 -7 -3 -15 -8 -17 -7 -3 -174
-246 -197 -285 -5 -10 -24 -38 -41 -63 -17 -25 -51 -76 -74 -115 -23 -38 -48
-73 -54 -77 -6 -4 -7 -8 -3 -8 4 0 -5 -19 -21 -42 -28 -41 -129 -210 -187
-313 -82 -145 -102 -184 -97 -189 3 -3 1 -6 -5 -6 -6 0 -20 -21 -32 -47 -12
-27 -26 -55 -31 -63 -25 -37 -168 -347 -225 -485 -20 -49 -41 -99 -46 -110 -5
-11 -18 -47 -29 -80 -12 -33 -25 -69 -30 -80 -5 -11 -20 -58 -35 -105 -15 -47
-28 -91 -31 -98 -2 -7 -4 -14 -4 -17 -1 -3 -10 -35 -21 -72 -24 -84 -66 -271
-75 -338 -3 -27 -8 -59 -10 -70 -18 -86 -26 -452 -11 -550 20 -135 22 -145 45
-236 31 -115 88 -248 149 -347 18 -29 33 -57 33 -62 0 -6 4 -10 8 -10 4 0 15
-12 24 -27 55 -91 257 -286 398 -383 19 -14 40 -28 45 -32 66 -52 370 -222
418 -234 4 -1 9 -3 12 -4 3 -1 8 -3 13 -4 4 -1 23 -9 42 -18 19 -8 53 -20 75
-27 22 -7 49 -16 60 -21 11 -5 56 -19 100 -30 115 -31 145 -38 200 -44 17 -2
41 -6 55 -10 36 -8 84 -15 175 -23 137 -13 635 -7 635 8 0 3 10 5 23 6 24 0
109 11 142 17 11 2 54 9 95 16 165 27 526 118 700 177 25 9 50 17 55 18 6 1
17 5 25 8 68 26 227 80 238 80 6 0 12 4 12 9 0 4 3 7 8 6 6 -3 162 52 207 73
11 5 85 34 165 64 80 31 161 63 180 71 66 29 107 45 120 48 3 1 14 7 25 13 11
5 37 16 58 22 20 7 37 17 37 22 0 6 4 7 10 4 5 -3 20 0 32 7 13 7 25 13 28 13
3 1 16 6 30 12 42 18 85 34 90 34 3 0 14 6 25 13 11 7 49 24 85 38 36 15 88
36 115 49 28 12 52 23 55 24 10 3 66 26 85 34 11 5 38 16 60 26 43 18 53 22
135 58 31 14 95 41 143 61 89 37 155 65 217 94 19 8 37 16 40 17 3 1 24 9 47
19 23 10 44 17 45 17 2 -1 36 14 76 34 40 19 75 35 78 35 3 0 24 9 47 19 23
10 71 31 107 46 36 15 83 35 105 45 22 10 85 37 140 60 55 23 123 53 152 66
28 13 54 24 57 24 3 0 31 12 63 26 32 14 72 32 88 39 17 7 52 22 79 34 27 12
69 31 95 41 25 10 71 29 101 43 30 14 62 27 70 29 8 2 17 5 20 8 3 3 88 41
190 85 102 43 235 100 295 127 61 27 115 51 120 52 14 4 56 22 108 45 53 24
120 54 127 56 11 4 63 26 103 43 23 11 87 39 142 62 55 23 123 52 150 65 28
12 118 51 200 85 83 35 153 69 157 74 4 6 8 8 8 4 0 -4 26 4 58 18 141 63 154
68 165 66 4 -1 7 2 7 6 0 6 55 32 80 37 3 1 21 8 40 17 63 28 270 118 298 130
15 6 30 11 35 10 4 -1 7 3 7 8 0 6 6 10 14 10 7 0 40 12 72 27 33 15 61 28 64
29 3 0 16 6 30 11 48 21 285 125 320 141 19 8 40 17 45 18 6 1 73 30 150 64
155 69 188 83 195 84 3 1 31 14 64 29 32 15 60 27 63 27 2 0 23 9 46 19 128
58 326 141 336 141 6 0 11 5 11 10 0 6 7 10 15 10 8 0 38 11 67 24 71 33 131
59 140 60 3 1 10 4 14 9 4 4 14 7 22 7 9 0 23 7 32 15 9 8 25 16 36 18 10 2
37 12 59 22 22 11 42 20 45 21 6 1 52 21 149 65 35 16 70 29 77 29 8 0 14 5
14 12 0 6 3 9 6 6 3 -3 42 11 87 31 106 49 120 55 130 53 4 -1 7 3 7 8 0 5 3
9 8 8 8 -1 26 6 110 43 35 16 65 29 68 29 2 0 38 16 80 35 41 19 78 35 81 35
2 0 35 14 71 31 37 17 72 32 77 33 6 2 37 15 70 31 33 15 66 28 73 28 6 0 12
4 12 9 0 4 9 8 20 8 11 0 20 4 20 8 0 5 6 9 13 9 6 0 32 9 57 20 149 68 184
83 196 83 8 0 14 4 14 10 0 5 3 9 8 8 8 -1 38 10 118 47 30 14 57 25 59 25 3
0 39 16 81 35 41 19 78 35 81 35 2 0 35 14 71 31 37 17 72 32 77 34 10 2 60
23 120 51 84 38 311 136 320 138 6 2 42 17 80 35 39 18 92 42 120 53 27 11 74
31 105 45 63 29 103 46 110 47 3 1 34 14 70 31 36 16 67 30 70 30 3 1 21 8 40
17 19 9 73 32 120 53 47 20 101 44 120 52 19 9 40 17 45 18 6 2 45 19 88 39
43 20 80 36 82 36 4 0 73 30 150 65 17 7 46 20 65 29 19 8 58 24 85 36 71 31
99 43 105 45 9 3 54 23 105 46 28 12 52 23 55 24 3 0 27 11 54 23 27 12 50 22
53 22 2 0 38 16 79 35 41 19 78 35 82 35 4 0 21 7 37 16 45 24 159 69 168 66
4 -1 7 2 7 7 0 5 17 15 38 22 20 6 58 22 85 36 26 13 47 20 47 17 0 -4 8 0 18
9 10 9 27 18 38 20 10 2 42 13 69 26 28 13 84 38 125 56 41 17 95 41 120 52
25 12 90 40 145 63 55 23 123 53 150 65 28 13 79 35 115 50 36 15 93 40 126
56 34 16 65 29 69 29 5 0 38 14 74 31 36 17 71 32 76 34 6 1 39 15 75 32 83
38 103 47 113 45 4 -1 7 2 7 7 0 5 15 12 33 15 18 3 50 22 72 41 33 28 38 37
29 52 -12 19 -64 37 -64 22 0 -6 -4 -8 -8 -5 -5 3 -60 -8 -123 -25 -63 -16
-121 -31 -129 -33 -8 -2 -22 -6 -30 -9 -15 -5 -173 -47 -200 -52 -8 -2 -17 -4
-20 -6 -3 -1 -9 -3 -15 -4 -5 -1 -17 -5 -25 -8 -13 -5 -192 -53 -230 -62 -8
-2 -15 -4 -15 -6 0 -1 -9 -3 -20 -5 -11 -2 -36 -7 -55 -13 -73 -20 -446 -122
-460 -126 -8 -2 -49 -13 -90 -24 -41 -11 -104 -28 -140 -37 -36 -8 -72 -18
-80 -21 -8 -3 -62 -19 -120 -35 -58 -15 -113 -30 -122 -33 -21 -6 -50 -13 -75
-19 -10 -2 -58 -15 -108 -29 -49 -14 -92 -24 -96 -21 -4 2 -9 0 -11 -5 -1 -5
-16 -12 -33 -14 -16 -3 -87 -22 -156 -41 -70 -19 -137 -38 -150 -40 -13 -3
-49 -13 -79 -21 -71 -21 -77 -22 -130 -36 -25 -6 -52 -13 -60 -16 -8 -4 -24
-8 -35 -10 -11 -1 -54 -14 -96 -26 -41 -13 -83 -23 -92 -21 -9 1 -17 -1 -17
-5 0 -4 -29 -14 -65 -21 -36 -7 -65 -18 -65 -22 0 -5 -4 -7 -9 -4 -5 3 -30 -1
-57 -9 -27 -8 -52 -15 -56 -15 -4 -1 -22 -6 -40 -11 -32 -10 -51 -15 -85 -23
-10 -2 -79 -21 -153 -41 -73 -21 -139 -38 -145 -40 -5 -1 -17 -5 -25 -8 -8 -3
-28 -9 -45 -13 -16 -4 -32 -8 -35 -9 -3 -1 -18 -5 -35 -9 -16 -5 -88 -24 -160
-43 -71 -20 -137 -37 -145 -38 -8 -2 -15 -4 -15 -5 0 -2 -14 -5 -53 -14 -13
-3 -32 -8 -42 -11 -10 -3 -27 -8 -37 -10 -10 -2 -52 -14 -93 -26 -41 -11 -124
-34 -185 -50 -60 -16 -118 -32 -127 -34 -10 -3 -26 -7 -35 -9 -10 -3 -74 -20
-143 -39 -69 -20 -127 -33 -129 -31 -3 3 7 34 29 89 5 11 21 56 36 100 14 44
31 91 37 105 6 14 12 34 14 45 3 20 -2 20 -638 20 -352 0 -642 2 -644 5 -3 5
7 32 50 145 5 11 9 22 10 25 1 3 5 14 9 25 4 11 16 43 26 70 10 28 21 59 26
70 4 11 6 23 6 28 -1 4 2 7 6 7 5 0 9 6 9 13 0 11 58 169 118 322 13 33 39
103 58 155 19 52 38 104 42 115 5 11 9 25 11 30 1 6 8 24 15 40 7 17 13 32 14
35 1 3 6 16 12 30 l11 25 532 0 531 0 14 30 c7 16 23 59 35 95 13 36 28 71 33
78 5 6 7 12 3 12 -4 0 0 13 9 30 8 16 16 33 16 37 1 5 6 19 12 33 5 14 12 34
14 44 2 11 7 24 12 30 5 6 16 36 26 66 10 30 23 58 29 62 6 4 8 8 4 8 -9 0 29
108 45 128 5 6 6 12 2 12 -4 0 -2 7 5 15 7 8 9 15 6 15 -4 0 -1 10 6 23 6 12
13 28 14 36 2 7 12 36 24 63 12 28 19 52 16 55 -2 3 -241 5 -530 4 -564 -1
-543 -2 -517 47 11 19 62 157 81 217 7 22 16 45 20 50 4 6 20 48 35 95 15 47
31 90 35 95 4 6 11 21 15 35 15 53 158 435 166 444 4 5 257 9 567 9 l559 0 17
46 c98 255 165 436 167 449 0 4 4 12 9 17 4 6 17 35 28 65 11 30 32 86 46 124
14 39 23 72 20 75 -3 3 -765 6 -1692 6 -1506 0 -1688 -2 -1702 -15 -8 -9 -27
-32 -42 -52 -15 -20 -33 -42 -41 -50 -7 -7 -30 -35 -52 -63 -22 -27 -45 -54
-51 -60 -5 -5 -28 -32 -49 -60 -22 -27 -44 -55 -50 -61 -5 -6 -26 -31 -45 -54
-19 -24 -51 -62 -70 -85 -19 -24 -48 -59 -65 -80 -16 -21 -44 -54 -61 -74 -17
-20 -100 -119 -183 -221 -84 -102 -160 -194 -169 -205 -20 -24 -100 -121 -122
-148 -15 -19 -22 -26 -92 -110 -23 -26 -43 -46 -45 -43 -2 2 5 26 16 53 11 26
22 55 23 63 2 8 6 17 10 20 3 3 8 14 10 25 1 11 5 22 8 25 3 3 14 30 24 60 11
30 26 71 35 90 8 19 15 37 16 40 3 16 19 59 31 85 7 17 31 80 54 140 22 61 44
119 49 130 11 24 141 366 145 380 4 13 15 43 31 80 37 89 66 177 60 183 -11
12 -1105 9 -1114 -3z m2808 -252 c-33 -87 -62 -165 -66 -173 -10 -23 -10 -23
-18 -57 -4 -18 -11 -33 -16 -33 -5 0 -8 -3 -7 -7 2 -7 -85 -253 -112 -318 -17
-40 -62 -160 -65 -170 -1 -5 -7 -21 -12 -35 -6 -14 -27 -70 -47 -125 -20 -55
-40 -107 -43 -115 -3 -8 -7 -20 -8 -26 -2 -6 -10 -27 -18 -45 -14 -32 -51
-128 -53 -139 -1 -8 -14 -41 -34 -90 -10 -25 -38 -97 -61 -160 -23 -63 -51
-137 -61 -165 -36 -93 -109 -290 -132 -355 -13 -36 -34 -90 -46 -120 -12 -30
-23 -59 -25 -65 -1 -5 -7 -21 -12 -35 -6 -14 -19 -50 -29 -80 -11 -30 -23 -58
-29 -62 -5 -4 -7 -8 -2 -8 4 0 1 -13 -8 -30 -8 -16 -16 -33 -16 -37 -2 -11 -7
-25 -44 -123 -18 -47 -61 -161 -95 -255 -34 -93 -69 -185 -77 -204 -8 -18 -16
-39 -18 -45 -1 -6 -5 -18 -8 -26 -9 -20 -51 -134 -52 -140 -1 -3 -5 -12 -8
-20 -10 -25 -78 -204 -81 -215 -2 -5 -7 -21 -13 -35 -32 -80 -52 -140 -45
-140 4 0 2 -4 -3 -8 -10 -6 -142 -345 -150 -384 -2 -9 -10 -29 -18 -44 l-15
-28 0 34 c0 48 -11 436 -16 600 -10 275 -18 559 -31 1040 -2 85 -7 238 -10
340 -13 442 -13 419 9 448 11 15 25 32 31 38 20 21 190 207 210 229 11 12 56
61 100 110 44 48 89 97 100 110 44 48 181 200 205 225 14 15 59 64 100 110 41
46 86 95 100 110 14 15 57 63 95 105 39 43 91 100 118 127 26 28 47 52 47 54
0 2 17 21 38 42 20 21 71 76 112 122 41 46 89 98 105 116 17 17 64 69 105 115
129 143 181 199 186 199 1 0 -25 -71 -57 -157z"/>
<path d="M2897 7653 c-2 -1 -18 -4 -37 -6 -83 -8 -162 -77 -189 -163 -15 -48
-9 -130 14 -174 36 -70 111 -121 182 -124 18 0 33 -5 33 -9 0 -5 5 -5 10 -2 6
4 23 8 38 11 63 10 82 16 82 25 0 5 6 9 13 9 22 0 82 74 95 116 27 91 6 187
-52 244 -43 42 -54 50 -75 50 -11 0 -22 4 -25 9 -5 8 -83 20 -89 14z m74 -81
c119 -41 141 -215 36 -292 -40 -31 -130 -39 -173 -17 -98 51 -128 158 -68 249
22 34 84 79 84 61 0 -4 5 -2 10 3 13 13 65 11 111 -4z"/>
<path d="M2809 7546 c-1 0 -2 -58 -3 -128 l-1 -128 31 0 c19 0 34 6 38 15 3 8
1 15 -5 15 -6 0 -7 6 -2 12 4 7 6 26 5 43 l-3 30 20 -25 c11 -14 21 -30 21
-36 0 -6 11 -22 24 -36 17 -19 30 -24 50 -21 14 3 26 8 26 10 0 3 -13 25 -30
50 -34 50 -35 53 -16 53 7 0 21 11 30 25 30 46 16 97 -31 110 -42 12 -73 13
-73 3 0 -5 -5 -6 -11 -2 -10 6 -67 14 -70 10z m119 -55 c26 -16 9 -46 -25 -47
-31 -1 -52 19 -32 31 5 4 7 11 4 16 -8 11 35 12 53 0z"/>
</g>
</svg>
