<?xml version="1.0" standalone="no"?>
<!DOCTYPE svg PUBLIC "-//W3C//DTD SVG 20010904//EN"
 "http://www.w3.org/TR/2001/REC-SVG-20010904/DTD/svg10.dtd">
<svg version="1.0" xmlns="http://www.w3.org/2000/svg"
 width="225.000000pt" height="225.000000pt" viewBox="0 0 225.000000 225.000000"
 preserveAspectRatio="xMidYMid meet">

<g transform="translate(0.000000,225.000000) scale(0.100000,-0.100000)"
fill="#000000" stroke="none">
<path d="M775 2240 c-275 -44 -521 -224 -647 -475 -14 -27 -38 -88 -54 -135
-26 -79 -28 -97 -28 -245 0 -182 10 -235 75 -374 80 -171 204 -304 370 -395
260 -143 589 -141 843 5 l70 40 331 -331 c182 -181 334 -330 339 -330 12 0
136 122 136 134 0 6 -147 158 -326 337 l-326 326 41 54 c58 75 127 219 151
311 117 466 -162 940 -625 1058 -93 24 -263 33 -350 20z m248 -101 c351 -55
618 -342 652 -700 13 -142 -29 -320 -107 -454 -49 -83 -180 -216 -261 -264
-516 -304 -1166 59 -1167 652 0 128 23 225 82 347 45 93 61 115 147 200 82 82
110 103 192 144 153 75 303 99 462 75z"/>
</g>
</svg>
