<?xml version="1.0" standalone="no"?>
<!DOCTYPE svg PUBLIC "-//W3C//DTD SVG 20010904//EN"
 "http://www.w3.org/TR/2001/REC-SVG-20010904/DTD/svg10.dtd">
<svg version="1.0" xmlns="http://www.w3.org/2000/svg"
 width="3840.000000pt" height="2160.000000pt" viewBox="0 0 3840.000000 2160.000000"
 preserveAspectRatio="xMidYMid meet">

<g transform="translate(0.000000,2160.000000) scale(0.100000,-0.100000)"
fill="#000000" stroke="none">
<path d="M15622 20472 c2 -5 1468 -1731 3258 -3836 1790 -2105 3256 -3831
3258 -3836 2 -4 -1469 -1737 -3267 -3849 -1799 -2113 -3271 -3844 -3271 -3846
0 -3 1246 -5 2769 -5 l2768 0 3473 3839 c1910 2111 3472 3843 3471 3847 -1 5
-1571 1738 -3489 3851 l-3487 3842 -2743 1 c-1509 0 -2742 -4 -2740 -8z"/>
<path d="M14155 15805 c-517 -703 -945 -1279 -951 -1282 -10 -4 -402 116
-2533 773 -293 91 -537 164 -541 162 -4 -2 395 -607 886 -1345 l892 -1342
-865 -1333 c-880 -1357 -891 -1374 -876 -1365 4 2 689 230 1521 506 1037 344
1517 499 1525 492 7 -5 455 -585 997 -1289 542 -704 985 -1279 986 -1278 0 0
-3 726 -7 1611 -3 886 -4 1613 0 1616 3 4 696 263 1539 575 842 312 1532 571
1532 574 0 3 -693 233 -1540 510 -847 277 -1545 507 -1550 510 -5 3 -22 654
-39 1510 -17 828 -32 1543 -34 1588 l-2 84 -940 -1277z"/>
<path d="M10189 4255 c-84 -17 -189 -60 -262 -109 -91 -60 -198 -182 -245
-278 -80 -164 -76 -106 -79 -1008 -4 -876 -4 -885 53 -1023 70 -172 228 -331
400 -401 135 -55 153 -56 934 -56 l720 0 0 405 0 405 -628 0 -629 0 -21 23
-22 23 0 578 0 577 25 24 24 25 626 0 625 0 0 415 0 415 -727 -1 c-561 -1
-743 -4 -794 -14z"/>
<path d="M12535 4254 c-102 -22 -257 -101 -333 -169 -111 -101 -188 -229 -228
-380 -18 -66 -19 -119 -19 -880 0 -761 1 -814 19 -880 70 -261 241 -443 501
-533 l80 -27 530 0 c588 0 585 0 730 69 199 94 340 267 395 481 19 75 20 110
20 890 0 780 -1 815 -20 890 -65 253 -243 439 -505 526 -69 23 -75 24 -585 26
-425 1 -527 -1 -585 -13z m865 -842 l28 -28 -2 -563 -1 -563 -28 -24 -28 -24
-275 0 -276 0 -29 29 -29 29 0 551 c0 383 3 557 11 575 6 13 21 29 33 34 13 7
128 11 294 11 l274 1 28 -28z"/>
<path d="M20020 4255 c-278 -59 -495 -271 -568 -553 -15 -61 -17 -142 -17
-877 0 -895 -2 -864 65 -1011 88 -194 246 -332 465 -405 l70 -24 753 -3 752
-3 0 416 0 415 -615 0 c-429 0 -621 3 -638 11 -33 15 -47 49 -47 115 0 59 19
108 45 118 9 3 295 6 636 6 l619 0 0 380 0 380 -628 0 c-612 0 -629 1 -647 20
-19 21 -31 95 -21 135 4 14 15 34 26 45 19 19 36 20 645 20 l625 0 0 415 0
415 -727 -1 c-578 0 -741 -3 -793 -14z"/>
<path d="M24687 4260 c-155 -26 -287 -167 -364 -385 l-28 -80 -3 -365 c-5
-475 9 -614 75 -749 53 -110 154 -180 309 -215 114 -25 315 -36 680 -36 400 0
379 6 379 -107 0 -59 -3 -67 -28 -89 l-28 -24 -695 0 -694 0 0 -415 0 -415
828 0 c850 0 899 2 1022 41 204 66 319 182 372 376 20 73 22 106 26 504 3 357
1 440 -12 518 -31 176 -103 282 -237 348 -135 66 -139 66 -640 72 -530 7 -499
1 -499 102 0 50 3 60 26 78 26 21 34 21 660 21 l634 0 0 415 0 415 -867 -1
c-478 -1 -890 -5 -916 -9z"/>
<path d="M27330 4254 c-240 -51 -444 -219 -531 -436 -56 -138 -53 -92 -57
-943 -2 -572 0 -811 8 -865 46 -293 247 -519 539 -607 50 -15 136 -17 809 -20
l752 -4 0 415 0 416 -631 2 -631 3 -19 24 c-15 18 -19 39 -19 98 0 65 3 77 25
98 l24 25 626 0 625 0 0 380 0 380 -629 0 -630 0 -20 26 c-32 41 -30 136 4
169 l24 25 626 0 625 0 0 415 0 415 -727 -1 c-584 0 -741 -3 -793 -15z"/>
<path d="M14530 2815 l0 -1435 405 0 405 0 0 1005 0 1006 25 24 24 25 266 0
267 0 29 -29 29 -29 0 -1001 0 -1001 380 0 381 0 -3 1118 -3 1117 -23 78 c-74
264 -256 448 -522 528 -75 23 -77 23 -867 27 l-793 3 0 -1436z"/>
<path d="M16740 4242 c0 -4 197 -649 439 -1432 l438 -1425 455 -3 454 -2 440
1430 c243 786 438 1432 436 1435 -3 3 -184 5 -403 5 l-398 0 -29 -92 c-15 -51
-134 -436 -263 -855 -128 -419 -235 -760 -237 -758 -2 2 -122 385 -265 852
l-262 848 -403 3 c-221 1 -402 -1 -402 -6z"/>
<path d="M21840 2815 l0 -1435 405 0 405 0 0 660 0 660 48 0 48 0 304 -660
305 -659 418 -1 417 0 -14 33 c-7 17 -113 262 -236 542 -122 281 -226 520
-230 531 -7 18 4 31 82 94 99 80 154 146 193 232 46 101 55 182 55 502 0 336
-8 385 -82 536 -34 69 -58 102 -132 175 -103 103 -200 160 -333 198 -77 21
-91 21 -865 25 l-788 3 0 -1436z m1436 542 c26 -31 30 -54 13 -90 -20 -44 -43
-47 -349 -47 l-290 0 0 85 0 86 301 -3 301 -3 24 -28z"/>
</g>
</svg>
