<?xml version="1.0" standalone="no"?>
<!DOCTYPE svg PUBLIC "-//W3C//DTD SVG 20010904//EN"
 "http://www.w3.org/TR/2001/REC-SVG-20010904/DTD/svg10.dtd">
<svg version="1.0" xmlns="http://www.w3.org/2000/svg"
 width="640.000000pt" height="640.000000pt" viewBox="0 0 640.000000 640.000000"
 preserveAspectRatio="xMidYMid meet">

<g transform="translate(0.000000,640.000000) scale(0.100000,-0.100000)"
fill="#000000" stroke="none">
<path d="M3017 5684 c-381 -69 -710 -426 -886 -963 -27 -80 -56 -179 -66 -218
l-17 -73 -309 0 c-300 0 -309 -1 -328 -21 -19 -21 -25 -51 -36 -184 -12 -150
-78 -956 -120 -1470 -24 -297 -60 -738 -80 -980 -20 -242 -42 -516 -50 -610
-19 -218 -19 -212 10 -240 l24 -25 2000 0 c1100 0 2007 3 2016 6 8 4 22 18 30
33 11 23 9 73 -15 371 -16 190 -40 487 -54 660 -14 173 -51 614 -81 980 -30
366 -68 836 -85 1045 -26 320 -34 384 -49 405 l-18 25 -324 3 -324 3 -28 112
c-15 61 -47 168 -72 236 -188 525 -517 857 -899 910 -97 14 -141 13 -239 -5z
m288 -159 c242 -63 464 -272 620 -584 56 -113 137 -342 169 -483 l6 -28 -945
0 c-859 0 -945 1 -945 16 0 39 77 282 125 395 158 370 387 605 665 684 64 19
233 18 305 0z m-1289 -1277 c-11 -56 -34 -267 -42 -383 -5 -88 -11 -116 -28
-140 -29 -42 -28 -120 3 -163 62 -88 199 -82 247 10 35 68 14 159 -46 195
l-30 18 5 75 c10 127 25 261 37 343 l11 77 978 0 977 0 5 -22 c12 -46 37 -258
43 -367 7 -111 7 -112 -19 -139 -118 -124 14 -309 169 -236 90 43 101 170 22
248 -14 13 -18 34 -18 84 0 59 -11 174 -36 375 l-7 57 257 0 256 0 0 -40 c0
-23 20 -287 45 -588 25 -301 72 -875 105 -1277 33 -401 69 -842 80 -980 11
-137 23 -271 26 -297 l6 -48 -1896 0 c-1838 0 -1896 1 -1896 18 0 11 9 127 20
258 30 362 104 1256 160 1944 27 338 57 695 65 792 8 97 15 186 15 197 0 21 4
21 246 21 l247 0 -7 -32z"/>
</g>
</svg>
